<?xml version="1.0" standalone="no"?>
<!DOCTYPE svg PUBLIC "-//W3C//DTD SVG 20010904//EN"
 "http://www.w3.org/TR/2001/REC-SVG-20010904/DTD/svg10.dtd">
<svg version="1.0" xmlns="http://www.w3.org/2000/svg"
 width="80.000000pt" height="80.000000pt" viewBox="0 0 80.000000 80.000000"
 preserveAspectRatio="xMidYMid meet">

<g transform="translate(0.000000,80.000000) scale(0.100000,-0.100000)"
fill="#000000" stroke="none">
<path d="M355 749 c-118 -104 -115 -238 7 -344 24 -20 39 -35 33 -34 -5 1 -32
-9 -60 -22 -70 -34 -168 -34 -210 -1 -41 32 -86 102 -83 127 4 30 99 66 166
63 57 -3 70 6 21 16 -58 11 -189 -33 -203 -69 -14 -39 81 -156 139 -171 l26
-6 -20 -22 c-30 -32 -41 -71 -41 -146 0 -61 3 -71 23 -84 48 -30 205 17 229
69 14 31 22 31 36 0 24 -53 181 -99 230 -68 23 14 24 20 20 98 -2 69 -7 89
-27 115 -19 26 -21 34 -10 41 8 5 17 9 21 9 32 1 129 127 121 159 -10 39 -143
86 -206 72 l-35 -8 0 44 c-1 29 -10 61 -26 88 -25 42 -88 105 -106 105 -5 0
-25 -14 -45 -31z m97 -26 c47 -49 68 -93 68 -140 0 -31 -7 -45 -40 -76 -23
-21 -48 -54 -57 -72 -9 -19 -22 -35 -28 -35 -16 0 -80 69 -99 107 -20 41 -20
105 0 146 22 43 84 107 104 107 9 0 32 -17 52 -37z m243 -204 c31 -12 59 -27
62 -35 14 -38 -72 -147 -127 -159 -16 -4 -49 0 -77 9 -26 9 -65 18 -86 21 -44
7 -54 24 -37 65 14 35 74 98 104 110 37 15 104 11 161 -11z m-297 -272 c-4
-95 -24 -133 -85 -163 -49 -23 -138 -31 -158 -14 -25 21 -20 128 8 181 22 41
27 44 85 56 34 7 74 19 89 27 20 10 33 11 46 4 17 -9 19 -20 15 -91z m168 69
c41 -19 55 -33 73 -68 24 -50 29 -156 9 -176 -31 -31 -155 -5 -202 43 -30 30
-31 33 -31 128 l-1 97 51 0 c32 0 69 -9 101 -24z"/>
</g>
</svg>
